<svg width="25" height="25" viewBox="0 0 25 25" fill="none" xmlns="http://www.w3.org/2000/svg">
<circle cx="12.5" cy="12.5" r="12.5" fill="black"/>
<path fill-rule="evenodd" clip-rule="evenodd" d="M16.6534 7.07525C16.8133 7.00862 16.9882 6.98564 17.1601 7.0087C17.3319 7.03176 17.4944 7.10003 17.6305 7.20639C17.7667 7.31275 17.8716 7.45331 17.9343 7.61346C17.997 7.7736 18.0153 7.94747 17.9871 8.11696L16.5202 16.9304C16.3779 17.7806 15.4361 18.2681 14.649 17.8446C13.9905 17.4904 13.0126 16.9445 12.1329 16.375C11.6931 16.0899 10.3458 15.177 10.5114 14.5273C10.6537 13.9719 12.9175 11.8846 14.2111 10.6437C14.7188 10.1562 14.4873 9.87491 13.8877 10.3234C12.3987 11.4368 10.0081 13.1301 9.21775 13.6067C8.52049 14.027 8.15698 14.0987 7.72233 14.027C6.92935 13.8963 6.19393 13.6938 5.59369 13.4472C4.7826 13.1141 4.82206 12.0096 5.59305 11.688L16.6534 7.07525Z" fill="white"/>
</svg>
