<svg width="26" height="26" viewBox="0 0 26 26" fill="none" xmlns="http://www.w3.org/2000/svg">
<g clip-path="url(#clip0_1202_1807)">
<path d="M13 25.5C19.9036 25.5 25.5 19.9036 25.5 13C25.5 6.09644 19.9036 0.5 13 0.5C6.09644 0.5 0.5 6.09644 0.5 13C0.5 19.9036 6.09644 25.5 13 25.5Z" fill="#131313"/>
<path fill-rule="evenodd" clip-rule="evenodd" d="M8.88208 6.0494L11.4188 8.57587C11.8027 8.95896 11.8027 9.49499 11.4953 9.8016L9.88135 11.4854C11.4181 13.017 12.9556 14.5487 14.4931 16.1568L16.1843 14.4722C16.4916 14.1656 17.0299 14.242 17.4137 14.6251L19.9505 17.1523C20.3343 17.5347 20.4115 18.0715 20.1041 18.3773L18.6431 19.8325C15.6461 22.8185 3.11738 10.3369 6.19311 7.35087C6.65414 6.89131 7.11517 6.43175 7.5762 5.89572C7.88355 5.58984 8.49826 5.66631 8.88208 6.0494ZM19.1813 6.12587V9.49499H18.1049V7.8869L14.0313 11.9457L13.2622 11.256L17.4137 7.12072H16.0299V6.12587H19.1813Z" fill="white"/>
</g>
<defs>
<clipPath id="clip0_1202_1807">
<rect width="25" height="25" fill="white" transform="translate(0.5 0.5)"/>
</clipPath>
</defs>
</svg>
